<svg width="19" height="19" viewBox="0 0 19 19" fill="none" xmlns="http://www.w3.org/2000/svg">
<path d="M1.32462 1.32461C1.43783 1.21111 1.57232 1.12106 1.72039 1.05962C1.86846 0.998178 2.02719 0.966553 2.1875 0.966553C2.3478 0.966553 2.50654 0.998178 2.6546 1.05962C2.80267 1.12106 2.93716 1.21111 3.05037 1.32461L9.5 7.77667L15.9496 1.32461C16.0629 1.21129 16.1975 1.12141 16.3455 1.06008C16.4936 0.998755 16.6522 0.967191 16.8125 0.967191C16.9727 0.967191 17.1314 0.998755 17.2795 1.06008C17.4275 1.12141 17.5621 1.21129 17.6754 1.32461C17.7887 1.43792 17.8786 1.57244 17.9399 1.7205C18.0012 1.86855 18.0328 2.02723 18.0328 2.18748C18.0328 2.34773 18.0012 2.50641 17.9399 2.65447C17.8786 2.80252 17.7887 2.93704 17.6754 3.05036L11.2233 9.49998L17.6754 15.9496C17.7887 16.0629 17.8786 16.1974 17.9399 16.3455C18.0012 16.4935 18.0328 16.6522 18.0328 16.8125C18.0328 16.9727 18.0012 17.1314 17.9399 17.2795C17.8786 17.4275 17.7887 17.562 17.6754 17.6754C17.5621 17.7887 17.4275 17.8786 17.2795 17.9399C17.1314 18.0012 16.9727 18.0328 16.8125 18.0328C16.6522 18.0328 16.4936 18.0012 16.3455 17.9399C16.1975 17.8786 16.0629 17.7887 15.9496 17.6754L9.5 11.2233L3.05037 17.6754C2.93706 17.7887 2.80253 17.8786 2.65448 17.9399C2.50643 18.0012 2.34775 18.0328 2.1875 18.0328C2.02725 18.0328 1.86856 18.0012 1.72051 17.9399C1.57246 17.8786 1.43794 17.7887 1.32462 17.6754C1.21131 17.562 1.12142 17.4275 1.0601 17.2795C0.99877 17.1314 0.967206 16.9727 0.967206 16.8125C0.967206 16.6522 0.99877 16.4935 1.0601 16.3455C1.12142 16.1974 1.21131 16.0629 1.32462 15.9496L7.77668 9.49998L1.32462 3.05036C1.21112 2.93714 1.12107 2.80265 1.05963 2.65459C0.998193 2.50652 0.966568 2.34779 0.966568 2.18748C0.966568 2.02717 0.998193 1.86844 1.05963 1.72037C1.12107 1.57231 1.21112 1.43782 1.32462 1.32461Z" fill="#BDBDBD"/>
</svg>
