<svg width="15" height="18" fill="none" xmlns="http://www.w3.org/2000/svg"><g clip-path="url(#clip0_877_553)"><path d="M2.416.427a1.8 1.8 0 011.121.236 1.753 1.753 0 01-.009 3.04 1.802 1.802 0 01-2.256-.368 1.752 1.752 0 01-.042-2.257c.289-.36.725-.6 1.186-.65zM.908 4.708H4.34c-.001.141.004.283-.009.424a6.654 6.654 0 00-2.202 1.55 5.113 5.113 0 00-1.115 1.864l-.106.013V4.708z" fill="#FF8A00"/><path d="M6.727 4.862c.38-.045.763-.067 1.146-.04 1.35.085 2.683.55 3.763 1.363.08.064.166.12.248.184.472.362.877.811 1.177 1.323.085.15.18.295.26.448.353.649.588 1.36.684 2.091.024.174.03.348.042.523.127 2.143.017 4.29.044 6.436H10.87v-2.615c0-.926-.003-1.853.002-2.779-.015-.782-.273-1.548-.688-2.21-.48-.747-1.28-1.305-2.174-1.432-.695-.092-1.437-.004-2.045.36a3.26 3.26 0 00-1.163 1.12 4.475 4.475 0 00-.655 1.99c-.002 1.856 0 3.71-.001 5.566H.924c.007-.395.002-.79.004-1.186-.01-1.25-.03-2.499-.015-3.748.01-.56.028-1.12.063-1.679a6.11 6.11 0 01.968-2.863c.346-.628.88-1.133 1.46-1.55.341-.246.7-.47 1.081-.652a7.131 7.131 0 012.242-.65z" fill="#7A7D8C"/></g><defs><clipPath id="clip0_877_553"><path fill="#fff" d="M0 0h15v18H0z"/></clipPath></defs></svg>