<svg width="10" height="15" viewBox="0 0 10 15" fill="none" xmlns="http://www.w3.org/2000/svg">
<path d="M0.739512 0.0817982C0.594256 0.1358 0.462319 0.214947 0.351256 0.314703C0.239913 0.414208 0.151574 0.532416 0.0912992 0.662555C0.0310247 0.792695 0 0.93221 0 1.07311C0 1.21401 0.0310247 1.35352 0.0912992 1.48366C0.151574 1.6138 0.239913 1.73201 0.351256 1.83152L5.84908 6.75536C6.29288 7.15282 6.29288 7.84774 5.84908 8.2452L0.351256 13.169C0.240093 13.2686 0.151913 13.3869 0.0917518 13.517C0.0315906 13.6471 0.000625985 13.7866 0.000625985 13.9275C0.000625985 14.0683 0.0315906 14.2078 0.0917518 14.3379C0.151913 14.468 0.240093 14.5863 0.351256 14.6859C0.46242 14.7855 0.594389 14.8645 0.739631 14.9184C0.884873 14.9723 1.04054 15 1.19775 15C1.35496 15 1.51063 14.9723 1.65587 14.9184C1.80111 14.8645 1.93308 14.7855 2.04425 14.6859L9.18128 8.18795C9.61934 7.78912 9.61658 7.09903 9.17535 6.70372L2.04425 0.314703C1.93319 0.214947 1.80125 0.1358 1.65599 0.0817982C1.51074 0.0277962 1.35502 0 1.19775 0C1.04049 0 0.884767 0.0277962 0.739512 0.0817982Z" fill="#0D7377"/>
</svg>
